<svg id="Layer_1" data-name="Layer 1" xmlns="http://www.w3.org/2000/svg" viewBox="0 0 86.43 44.19"><defs><style>.cls-1{fill:#3573a2;}</style></defs><path class="cls-1" d="M85.88,26c-3.74-.11-7.41-.27-11.27-.48a3.58,3.58,0,0,0,0-.42A21.69,21.69,0,0,0,69,13c-1.92-2-5.68-5.61-8-2.28-2.13,3-1.06,7.87.88,10.66a11.19,11.19,0,0,0,4,3.48c-4.16-.33-8.35-.75-12.54-1.25-.61-6.43-1.36-13.27-5.55-18.47C45.52,2.48,40.45-1.93,37,.93c-3.89,3.25-2,10.1.32,13.54A29.49,29.49,0,0,0,46,22.66c-5.28-.79-10.53-1.75-15.69-2.91C27,13.68,21,8.3,14,7.52,8.85,7,2.1,6.42.35,12.4c-3.78,12.93,24.23,13,31,8.91.07,0,.07-.1.11-.15,6,1.29,12,2.33,18,3.15l-.17.1C44,24.2,39,26.36,34.84,29.7c-3.59,2.86-6.65,7.65-3.55,12.07,7.45,10.6,21.15-17.07,21.09-17.18,5.25.66,10.14,1.21,15.36,1.59a11.12,11.12,0,0,0-7.6,6.73c-1,2.58-1.4,6.92,1,8.88C63.93,44,67.25,41.7,69,39.48A20.19,20.19,0,0,0,73.3,26.66c0-.05,0-.07,0-.11,4.27.25,8.43.43,12.59.55C86.62,27.13,86.61,26,85.88,26ZM19.77,10.34a27.25,27.25,0,0,1,9.05,9.07A149.92,149.92,0,0,1,2.54,10.85c-.08,0-.14,0-.22,0C6.07,7,16.43,8.46,19.77,10.34ZM16.49,22.15C12.28,21.9,1.87,20.85,1,15.43a5.31,5.31,0,0,1,.71-3.88.45.45,0,0,0,.25.28,152.76,152.76,0,0,0,27.85,9C25.92,22.66,20.69,22.4,16.49,22.15Zm23.69-6a13.65,13.65,0,0,1-4-7.25C35.77,6.16,36,3,38.28,2a40.06,40.06,0,0,0,5.38,10.69c2.52,3.37,4.24,7.12,6.61,10.55C46.4,22.29,42.72,18.79,40.18,16.13ZM37.68,29a20.41,20.41,0,0,1,9.72-3.47A58.52,58.52,0,0,0,31.51,40.18C29.27,35.94,34.29,31.24,37.68,29Zm12.91-3.37c-2.4,5.87-12.28,21.22-17.69,16.27A7.84,7.84,0,0,1,32,41,68.5,68.5,0,0,1,50.72,24.65C51.05,24.67,50.92,25.16,50.59,25.66Zm1.2-2.21c0-.09-.14-.18-.2-.26-2.26-3.14-3.68-6.74-6-9.86A44.46,44.46,0,0,1,39.38,1.71,6.48,6.48,0,0,1,42.1,2c8,2.35,9.34,14.68,10,21.49ZM64,22.21c-2.06-2-4.07-6.35-2.7-9.28a4.22,4.22,0,0,1,1-1.35s0,.06,0,.09c2.79,4.69,5.81,9.22,9,13.62L70,25.21A11.48,11.48,0,0,1,64,22.21ZM62,31.7A10.29,10.29,0,0,1,68.88,27a8.4,8.4,0,0,0,1.74-.6l.34.06q-4.38,7.28-9.34,14.17C59.5,38.63,60.87,33.53,62,31.7Zm10.21-5a19.71,19.71,0,0,1-1.86,8.66c-1.12,2.31-3.51,6.38-6.55,6.2a3.59,3.59,0,0,1-1.2-.27q5.07-7,9.54-14.47c0-.07,0-.13,0-.2h0A.22.22,0,0,0,72.18,26.67Zm.48-1.29q-5.07-6.91-9.47-14.29s0,0,0,0c2.77-.75,6.46,4.34,7.41,5.85a20.71,20.71,0,0,1,2.91,8.18c0,.16.05.18.06.35Z"/></svg>